<svg width="47" height="47" viewBox="0 0 47 47" fill="none" xmlns="http://www.w3.org/2000/svg">
<circle cx="23.5" cy="23.5" r="23.5" fill="white"/>
<path d="M21.7977 3.00163C19.8947 2.95986 14.9966 3.70344 10.628 7.01197C6.25933 10.3205 3.92608 16.5783 3.30554 19.2936C2.85047 21.7166 2.56088 27.6903 5.04306 32.2019C8.14577 37.8415 13.4378 40.9712 17.3298 42.3531C21.879 43.9683 28.9741 42.1632 31.23 41.2252C32.8318 40.5591 39.1123 36.7775 40.2899 32.9539C41.6551 30.4474 44.0132 24.2063 42.5239 19.2936C41.9282 14.0802 38.056 9.60198 36.1944 8.01456C34.2914 6.34358 29.2194 3.00163 24.1558 3.00163V12.0249C24.1558 12.9022 24.3047 14.8321 24.9004 15.5339C25.3141 14.4478 26.2905 12.4009 26.8862 12.9022C27.5481 12.5262 29.8152 13.0776 33.5881 18.291C37.361 23.5045 38.9661 28.0663 39.2971 29.6955C39.628 31.3664 39.6198 34.8337 36.939 35.335C33.5881 35.9616 29.7407 34.959 27.8791 32.9539C26.0174 30.9487 25.2728 29.9461 24.9004 28.8182C24.6026 27.9159 24.5281 22.0925 24.5281 19.2936C23.9903 18.7506 22.9147 17.5892 22.9147 17.2885C22.9147 16.9125 21.5495 19.2936 21.1772 19.2936C20.8049 19.2936 21.5495 26.5624 20.8049 28.8182C20.0602 31.074 16.7093 34.959 12.8619 35.335C9.01454 35.711 7.77345 35.711 6.78058 33.5805C5.78771 31.45 7.15291 26.4371 8.89043 23.5546C10.628 20.6722 15.7164 12.9022 17.8263 12.9022C19.5141 12.9022 19.8534 13.4034 19.812 13.6541C20.1429 13.9465 20.8049 14.7319 20.8049 15.5339C20.8049 16.5365 21.7977 13.5288 21.7977 12.0249V3.00163Z" fill="#272343"/>
<path d="M21.7977 3.00163C19.8947 2.95986 14.9966 3.70344 10.628 7.01197C6.25933 10.3205 3.92608 16.5783 3.30554 19.2936C2.85047 21.7166 2.56088 27.6903 5.04306 32.2019C8.14577 37.8415 13.4378 40.9712 17.3298 42.3531C21.879 43.9683 28.9741 42.1632 31.23 41.2252C32.8318 40.5591 39.1123 36.7775 40.2899 32.9539C41.6551 30.4474 44.0132 24.2063 42.5239 19.2936C41.9282 14.0802 38.056 9.60198 36.1944 8.01456C34.2914 6.34358 29.2194 3.00163 24.1558 3.00163V12.0249C24.1558 12.9022 24.3047 14.8321 24.9004 15.5339C25.3141 14.4478 26.2905 12.4009 26.8862 12.9022C27.5481 12.5262 29.8152 13.0776 33.5881 18.291C37.361 23.5045 38.9661 28.0663 39.2971 29.6955C39.628 31.3664 39.6198 34.8337 36.939 35.335C33.5881 35.9616 29.7407 34.959 27.8791 32.9539C26.0174 30.9487 25.2728 29.9461 24.9004 28.8182C24.6026 27.9159 24.5281 22.0925 24.5281 19.2936C23.9903 18.7506 22.9147 17.5892 22.9147 17.2885C22.9147 16.9125 21.5495 19.2936 21.1772 19.2936C20.8049 19.2936 21.5495 26.5624 20.8049 28.8182C20.0602 31.074 16.7093 34.959 12.8619 35.335C9.01454 35.711 7.77345 35.711 6.78058 33.5805C5.78771 31.45 7.15291 26.4371 8.89043 23.5546C10.628 20.6722 15.7164 12.9022 17.8263 12.9022C19.5141 12.9022 19.8534 13.4034 19.812 13.6541C20.1429 13.9465 20.8049 14.7319 20.8049 15.5339C20.8049 16.5365 21.7977 13.5288 21.7977 12.0249V3.00163Z" fill="#272343"/>
<path d="M21.7977 3.00163C19.8947 2.95986 14.9966 3.70344 10.628 7.01197C6.25933 10.3205 3.92608 16.5783 3.30554 19.2936C2.85047 21.7166 2.56088 27.6903 5.04306 32.2019C8.14577 37.8415 13.4378 40.9712 17.3298 42.3531C21.879 43.9683 28.9741 42.1632 31.23 41.2252C32.8318 40.5591 39.1123 36.7775 40.2899 32.9539C41.6551 30.4474 44.0132 24.2063 42.5239 19.2936C41.9282 14.0802 38.056 9.60198 36.1944 8.01456C34.2914 6.34358 29.2194 3.00163 24.1558 3.00163V12.0249C24.1558 12.9022 24.3047 14.8321 24.9004 15.5339C25.3141 14.4478 26.2905 12.4009 26.8862 12.9022C27.5481 12.5262 29.8152 13.0776 33.5881 18.291C37.361 23.5045 38.9661 28.0663 39.2971 29.6955C39.628 31.3664 39.6198 34.8337 36.939 35.335C33.5881 35.9616 29.7407 34.959 27.8791 32.9539C26.0174 30.9487 25.2728 29.9461 24.9004 28.8182C24.6026 27.9159 24.5281 22.0925 24.5281 19.2936C23.9903 18.7506 22.9147 17.5892 22.9147 17.2885C22.9147 16.9125 21.5495 19.2936 21.1772 19.2936C20.8049 19.2936 21.5495 26.5624 20.8049 28.8182C20.0602 31.074 16.7093 34.959 12.8619 35.335C9.01454 35.711 7.77345 35.711 6.78058 33.5805C5.78771 31.45 7.15291 26.4371 8.89043 23.5546C10.628 20.6722 15.7164 12.9022 17.8263 12.9022C19.5141 12.9022 19.8534 13.4034 19.812 13.6541C20.1429 13.9465 20.8049 14.7319 20.8049 15.5339C20.8049 16.5365 21.7977 13.5288 21.7977 12.0249M21.7977 3.00163C21.7977 5.5081 21.7977 10.8218 21.7977 12.0249M21.7977 3.00163V12.0249" stroke="#272343"/>
</svg>
