<svg width="466" height="430" viewBox="0 0 466 430" fill="none" xmlns="http://www.w3.org/2000/svg">
<path d="M204.413 33.7H208.55V111.075C208.55 128.237 222.513 142.2 239.675 142.2C256.837 142.2 270.8 128.237 270.8 111.075V33.7H274.938C278.639 33.7 281.65 30.6885 281.65 26.9875V10.7125C281.65 7.01149 278.639 4 274.938 4H204.413C200.711 4 197.7 7.01149 197.7 10.7125V26.9875C197.7 30.6885 200.711 33.7 204.413 33.7ZM232.825 33.7H246.525V58.25H232.825V33.7ZM391.575 155.9H185.425C180.232 155.9 176 160.132 176 165.325V176.175C176 181.368 180.232 185.6 185.425 185.6H391.575C396.768 185.6 401 181.368 401 176.175V165.325C401 160.132 396.768 155.9 391.575 155.9ZM302.063 33.7H306.2V111.075C306.2 128.237 320.163 142.2 337.325 142.2C354.487 142.2 368.45 128.237 368.45 111.075V33.7H372.588C376.289 33.7 379.3 30.6885 379.3 26.9875V10.7125C379.3 7.01149 376.289 4 372.588 4H302.063C298.361 4 295.35 7.01149 295.35 10.7125V26.9875C295.35 30.6885 298.361 33.7 302.063 33.7ZM330.475 33.7H344.175V58.25H330.475V33.7Z" fill="#272343" stroke="white" stroke-width="8"/>
<mask id="path-2-outside-1_268_162" maskUnits="userSpaceOnUse" x="92" y="87" width="247" height="201" fill="black">
<rect fill="white" x="92" y="87" width="247" height="201"/>
<path d="M273.25 210.5C280.103 210.5 286.802 208.468 292.5 204.66C298.198 200.853 302.639 195.441 305.262 189.11C307.884 182.778 308.571 175.811 307.234 169.09C305.897 162.369 302.597 156.194 297.751 151.349C292.905 146.503 286.731 143.203 280.009 141.866C273.288 140.529 266.321 141.215 259.99 143.837C253.658 146.46 248.247 150.901 244.439 156.599C240.632 162.297 238.6 168.997 238.6 175.85C238.6 185.04 242.25 193.853 248.748 200.351C255.246 206.849 264.06 210.5 273.25 210.5ZM290.574 222.05C289.71 222.047 288.85 222.179 288.026 222.443C278.455 225.769 268.041 225.769 258.469 222.443C257.647 222.179 256.788 222.047 255.925 222.05C250.597 222.05 245.322 223.103 240.403 225.148C235.484 227.194 231.017 230.191 227.26 233.969C223.504 237.746 220.531 242.229 218.512 247.16C216.494 252.09 215.47 257.371 215.5 262.698C215.55 272.177 223.343 279.8 232.825 279.8H313.674C323.156 279.8 330.949 272.177 330.999 262.698C331.029 257.371 330.005 252.09 327.987 247.16C325.968 242.229 322.995 237.746 319.239 233.969C315.482 230.191 311.016 227.194 306.096 225.148C301.177 223.103 295.902 222.05 290.574 222.05ZM219.077 225.821C221.518 223.421 224.188 221.266 227.05 219.386V141.2C227.05 138.137 225.833 135.199 223.667 133.033C221.501 130.867 218.563 129.65 215.5 129.65H203.95V106.55C203.95 103.487 202.733 100.549 200.567 98.3829C198.401 96.2169 195.463 95 192.4 95H134.65C131.587 95 128.649 96.2169 126.483 98.3829C124.317 100.549 123.1 103.487 123.1 106.55V129.65H111.55C108.487 129.65 105.549 130.867 103.383 133.033C101.217 135.199 100 138.137 100 141.2V274.025C100 275.556 100.608 277.025 101.691 278.108C102.774 279.191 104.243 279.8 105.775 279.8H209.837C206.074 274.91 204.008 268.929 203.95 262.76C203.894 255.907 205.203 249.112 207.8 242.77C210.397 236.428 214.23 230.667 219.077 225.821ZM151.975 240.818C151.975 241.967 151.519 243.069 150.706 243.881C149.894 244.693 148.792 245.15 147.644 245.15H133.206C132.057 245.15 130.956 244.693 130.144 243.881C129.331 243.069 128.875 241.967 128.875 240.818V226.381C128.875 225.232 129.331 224.131 130.144 223.318C130.956 222.506 132.057 222.05 133.206 222.05H147.644C148.792 222.05 149.894 222.506 150.706 223.318C151.519 224.131 151.975 225.232 151.975 226.381V240.818ZM151.975 194.618C151.975 195.767 151.519 196.869 150.706 197.681C149.894 198.493 148.792 198.95 147.644 198.95H133.206C132.057 198.95 130.956 198.493 130.144 197.681C129.331 196.869 128.875 195.767 128.875 194.618V180.181C128.875 179.032 129.331 177.931 130.144 177.118C130.956 176.306 132.057 175.85 133.206 175.85H147.644C148.792 175.85 149.894 176.306 150.706 177.118C151.519 177.931 151.975 179.032 151.975 180.181V194.618ZM169.3 150.584C169.3 151.159 169.072 151.709 168.666 152.116C168.259 152.522 167.709 152.75 167.134 152.75H159.915C159.341 152.75 158.79 152.522 158.384 152.116C157.978 151.709 157.75 151.159 157.75 150.584V141.2H148.365C147.791 141.2 147.24 140.972 146.834 140.566C146.428 140.159 146.2 139.609 146.2 139.034V131.816C146.2 131.241 146.428 130.69 146.834 130.284C147.24 129.878 147.791 129.65 148.365 129.65H157.75V120.266C157.75 119.691 157.978 119.14 158.384 118.734C158.79 118.328 159.341 118.1 159.915 118.1H167.134C167.709 118.1 168.259 118.328 168.666 118.734C169.072 119.14 169.3 119.691 169.3 120.266V129.65H178.684C179.259 129.65 179.809 129.878 180.215 130.284C180.622 130.69 180.85 131.241 180.85 131.816V139.034C180.85 139.609 180.622 140.159 180.215 140.566C179.809 140.972 179.259 141.2 178.684 141.2H169.3V150.584ZM198.175 240.818C198.175 241.967 197.718 243.069 196.906 243.881C196.094 244.693 194.992 245.15 193.844 245.15H179.406C178.257 245.15 177.156 244.693 176.343 243.881C175.531 243.069 175.075 241.967 175.075 240.818V226.381C175.075 225.232 175.531 224.131 176.343 223.318C177.156 222.506 178.257 222.05 179.406 222.05H193.844C194.992 222.05 196.094 222.506 196.906 223.318C197.718 224.131 198.175 225.232 198.175 226.381V240.818ZM198.175 194.618C198.175 195.767 197.718 196.869 196.906 197.681C196.094 198.493 194.992 198.95 193.844 198.95H179.406C178.257 198.95 177.156 198.493 176.343 197.681C175.531 196.869 175.075 195.767 175.075 194.618V180.181C175.075 179.032 175.531 177.931 176.343 177.118C177.156 176.306 178.257 175.85 179.406 175.85H193.844C194.992 175.85 196.094 176.306 196.906 177.118C197.718 177.931 198.175 179.032 198.175 180.181V194.618Z"/>
</mask>
<path d="M273.25 210.5C280.103 210.5 286.802 208.468 292.5 204.66C298.198 200.853 302.639 195.441 305.262 189.11C307.884 182.778 308.571 175.811 307.234 169.09C305.897 162.369 302.597 156.194 297.751 151.349C292.905 146.503 286.731 143.203 280.009 141.866C273.288 140.529 266.321 141.215 259.99 143.837C253.658 146.46 248.247 150.901 244.439 156.599C240.632 162.297 238.6 168.997 238.6 175.85C238.6 185.04 242.25 193.853 248.748 200.351C255.246 206.849 264.06 210.5 273.25 210.5ZM290.574 222.05C289.71 222.047 288.85 222.179 288.026 222.443C278.455 225.769 268.041 225.769 258.469 222.443C257.647 222.179 256.788 222.047 255.925 222.05C250.597 222.05 245.322 223.103 240.403 225.148C235.484 227.194 231.017 230.191 227.26 233.969C223.504 237.746 220.531 242.229 218.512 247.16C216.494 252.09 215.47 257.371 215.5 262.698C215.55 272.177 223.343 279.8 232.825 279.8H313.674C323.156 279.8 330.949 272.177 330.999 262.698C331.029 257.371 330.005 252.09 327.987 247.16C325.968 242.229 322.995 237.746 319.239 233.969C315.482 230.191 311.016 227.194 306.096 225.148C301.177 223.103 295.902 222.05 290.574 222.05ZM219.077 225.821C221.518 223.421 224.188 221.266 227.05 219.386V141.2C227.05 138.137 225.833 135.199 223.667 133.033C221.501 130.867 218.563 129.65 215.5 129.65H203.95V106.55C203.95 103.487 202.733 100.549 200.567 98.3829C198.401 96.2169 195.463 95 192.4 95H134.65C131.587 95 128.649 96.2169 126.483 98.3829C124.317 100.549 123.1 103.487 123.1 106.55V129.65H111.55C108.487 129.65 105.549 130.867 103.383 133.033C101.217 135.199 100 138.137 100 141.2V274.025C100 275.556 100.608 277.025 101.691 278.108C102.774 279.191 104.243 279.8 105.775 279.8H209.837C206.074 274.91 204.008 268.929 203.95 262.76C203.894 255.907 205.203 249.112 207.8 242.77C210.397 236.428 214.23 230.667 219.077 225.821ZM151.975 240.818C151.975 241.967 151.519 243.069 150.706 243.881C149.894 244.693 148.792 245.15 147.644 245.15H133.206C132.057 245.15 130.956 244.693 130.144 243.881C129.331 243.069 128.875 241.967 128.875 240.818V226.381C128.875 225.232 129.331 224.131 130.144 223.318C130.956 222.506 132.057 222.05 133.206 222.05H147.644C148.792 222.05 149.894 222.506 150.706 223.318C151.519 224.131 151.975 225.232 151.975 226.381V240.818ZM151.975 194.618C151.975 195.767 151.519 196.869 150.706 197.681C149.894 198.493 148.792 198.95 147.644 198.95H133.206C132.057 198.95 130.956 198.493 130.144 197.681C129.331 196.869 128.875 195.767 128.875 194.618V180.181C128.875 179.032 129.331 177.931 130.144 177.118C130.956 176.306 132.057 175.85 133.206 175.85H147.644C148.792 175.85 149.894 176.306 150.706 177.118C151.519 177.931 151.975 179.032 151.975 180.181V194.618ZM169.3 150.584C169.3 151.159 169.072 151.709 168.666 152.116C168.259 152.522 167.709 152.75 167.134 152.75H159.915C159.341 152.75 158.79 152.522 158.384 152.116C157.978 151.709 157.75 151.159 157.75 150.584V141.2H148.365C147.791 141.2 147.24 140.972 146.834 140.566C146.428 140.159 146.2 139.609 146.2 139.034V131.816C146.2 131.241 146.428 130.69 146.834 130.284C147.24 129.878 147.791 129.65 148.365 129.65H157.75V120.266C157.75 119.691 157.978 119.14 158.384 118.734C158.79 118.328 159.341 118.1 159.915 118.1H167.134C167.709 118.1 168.259 118.328 168.666 118.734C169.072 119.14 169.3 119.691 169.3 120.266V129.65H178.684C179.259 129.65 179.809 129.878 180.215 130.284C180.622 130.69 180.85 131.241 180.85 131.816V139.034C180.85 139.609 180.622 140.159 180.215 140.566C179.809 140.972 179.259 141.2 178.684 141.2H169.3V150.584ZM198.175 240.818C198.175 241.967 197.718 243.069 196.906 243.881C196.094 244.693 194.992 245.15 193.844 245.15H179.406C178.257 245.15 177.156 244.693 176.343 243.881C175.531 243.069 175.075 241.967 175.075 240.818V226.381C175.075 225.232 175.531 224.131 176.343 223.318C177.156 222.506 178.257 222.05 179.406 222.05H193.844C194.992 222.05 196.094 222.506 196.906 223.318C197.718 224.131 198.175 225.232 198.175 226.381V240.818ZM198.175 194.618C198.175 195.767 197.718 196.869 196.906 197.681C196.094 198.493 194.992 198.95 193.844 198.95H179.406C178.257 198.95 177.156 198.493 176.343 197.681C175.531 196.869 175.075 195.767 175.075 194.618V180.181C175.075 179.032 175.531 177.931 176.343 177.118C177.156 176.306 178.257 175.85 179.406 175.85H193.844C194.992 175.85 196.094 176.306 196.906 177.118C197.718 177.931 198.175 179.032 198.175 180.181V194.618Z" fill="#272343"/>
<path d="M273.25 210.5C280.103 210.5 286.802 208.468 292.5 204.66C298.198 200.853 302.639 195.441 305.262 189.11C307.884 182.778 308.571 175.811 307.234 169.09C305.897 162.369 302.597 156.194 297.751 151.349C292.905 146.503 286.731 143.203 280.009 141.866C273.288 140.529 266.321 141.215 259.99 143.837C253.658 146.46 248.247 150.901 244.439 156.599C240.632 162.297 238.6 168.997 238.6 175.85C238.6 185.04 242.25 193.853 248.748 200.351C255.246 206.849 264.06 210.5 273.25 210.5ZM290.574 222.05C289.71 222.047 288.85 222.179 288.026 222.443C278.455 225.769 268.041 225.769 258.469 222.443C257.647 222.179 256.788 222.047 255.925 222.05C250.597 222.05 245.322 223.103 240.403 225.148C235.484 227.194 231.017 230.191 227.26 233.969C223.504 237.746 220.531 242.229 218.512 247.16C216.494 252.09 215.47 257.371 215.5 262.698C215.55 272.177 223.343 279.8 232.825 279.8H313.674C323.156 279.8 330.949 272.177 330.999 262.698C331.029 257.371 330.005 252.09 327.987 247.16C325.968 242.229 322.995 237.746 319.239 233.969C315.482 230.191 311.016 227.194 306.096 225.148C301.177 223.103 295.902 222.05 290.574 222.05ZM219.077 225.821C221.518 223.421 224.188 221.266 227.05 219.386V141.2C227.05 138.137 225.833 135.199 223.667 133.033C221.501 130.867 218.563 129.65 215.5 129.65H203.95V106.55C203.95 103.487 202.733 100.549 200.567 98.3829C198.401 96.2169 195.463 95 192.4 95H134.65C131.587 95 128.649 96.2169 126.483 98.3829C124.317 100.549 123.1 103.487 123.1 106.55V129.65H111.55C108.487 129.65 105.549 130.867 103.383 133.033C101.217 135.199 100 138.137 100 141.2V274.025C100 275.556 100.608 277.025 101.691 278.108C102.774 279.191 104.243 279.8 105.775 279.8H209.837C206.074 274.91 204.008 268.929 203.95 262.76C203.894 255.907 205.203 249.112 207.8 242.77C210.397 236.428 214.23 230.667 219.077 225.821ZM151.975 240.818C151.975 241.967 151.519 243.069 150.706 243.881C149.894 244.693 148.792 245.15 147.644 245.15H133.206C132.057 245.15 130.956 244.693 130.144 243.881C129.331 243.069 128.875 241.967 128.875 240.818V226.381C128.875 225.232 129.331 224.131 130.144 223.318C130.956 222.506 132.057 222.05 133.206 222.05H147.644C148.792 222.05 149.894 222.506 150.706 223.318C151.519 224.131 151.975 225.232 151.975 226.381V240.818ZM151.975 194.618C151.975 195.767 151.519 196.869 150.706 197.681C149.894 198.493 148.792 198.95 147.644 198.95H133.206C132.057 198.95 130.956 198.493 130.144 197.681C129.331 196.869 128.875 195.767 128.875 194.618V180.181C128.875 179.032 129.331 177.931 130.144 177.118C130.956 176.306 132.057 175.85 133.206 175.85H147.644C148.792 175.85 149.894 176.306 150.706 177.118C151.519 177.931 151.975 179.032 151.975 180.181V194.618ZM169.3 150.584C169.3 151.159 169.072 151.709 168.666 152.116C168.259 152.522 167.709 152.75 167.134 152.75H159.915C159.341 152.75 158.79 152.522 158.384 152.116C157.978 151.709 157.75 151.159 157.75 150.584V141.2H148.365C147.791 141.2 147.24 140.972 146.834 140.566C146.428 140.159 146.2 139.609 146.2 139.034V131.816C146.2 131.241 146.428 130.69 146.834 130.284C147.24 129.878 147.791 129.65 148.365 129.65H157.75V120.266C157.75 119.691 157.978 119.14 158.384 118.734C158.79 118.328 159.341 118.1 159.915 118.1H167.134C167.709 118.1 168.259 118.328 168.666 118.734C169.072 119.14 169.3 119.691 169.3 120.266V129.65H178.684C179.259 129.65 179.809 129.878 180.215 130.284C180.622 130.69 180.85 131.241 180.85 131.816V139.034C180.85 139.609 180.622 140.159 180.215 140.566C179.809 140.972 179.259 141.2 178.684 141.2H169.3V150.584ZM198.175 240.818C198.175 241.967 197.718 243.069 196.906 243.881C196.094 244.693 194.992 245.15 193.844 245.15H179.406C178.257 245.15 177.156 244.693 176.343 243.881C175.531 243.069 175.075 241.967 175.075 240.818V226.381C175.075 225.232 175.531 224.131 176.343 223.318C177.156 222.506 178.257 222.05 179.406 222.05H193.844C194.992 222.05 196.094 222.506 196.906 223.318C197.718 224.131 198.175 225.232 198.175 226.381V240.818ZM198.175 194.618C198.175 195.767 197.718 196.869 196.906 197.681C196.094 198.493 194.992 198.95 193.844 198.95H179.406C178.257 198.95 177.156 198.493 176.343 197.681C175.531 196.869 175.075 195.767 175.075 194.618V180.181C175.075 179.032 175.531 177.931 176.343 177.118C177.156 176.306 178.257 175.85 179.406 175.85H193.844C194.992 175.85 196.094 176.306 196.906 177.118C197.718 177.931 198.175 179.032 198.175 180.181V194.618Z" stroke="white" stroke-width="16" mask="url(#path-2-outside-1_268_162)"/>
<path d="M461.464 372.2C461.464 363.71 456.12 356.469 448.612 353.657C456.665 342.6 461.464 329.012 461.464 314.29C461.464 277.243 431.337 247.116 394.29 247.116H390.29V251.116V272.174V276.174H394.29C415.304 276.174 432.406 293.276 432.406 314.29C432.406 335.304 415.304 352.406 394.29 352.406H304.794C293.862 352.406 285 361.268 285 372.2C285 377.318 289.147 381.464 294.265 381.464H452.2C457.318 381.464 461.464 377.318 461.464 372.2ZM327.116 303.761C327.116 311.767 333.594 318.262 341.593 318.29V319.555C341.593 324.673 345.74 328.819 350.858 328.819H364.019C369.137 328.819 373.284 324.673 373.284 319.555V318.29C381.283 318.262 387.761 311.767 387.761 303.761V230.058C387.761 223.422 383.311 217.824 377.232 216.087V214.265C377.232 209.147 373.085 205 367.968 205H346.91C341.792 205 337.645 209.147 337.645 214.265V216.087C331.567 217.824 327.116 223.422 327.116 230.058V303.761ZM323.219 349.877H391.658C395.321 349.877 398.29 346.908 398.29 343.245V337.981C398.29 334.317 395.321 331.348 391.658 331.348H323.219C319.556 331.348 316.587 334.317 316.587 337.981V343.245C316.587 346.908 319.556 349.877 323.219 349.877Z" fill="#272343" stroke="white" stroke-width="8"/>
<path d="M204.146 292.281L204.146 292.28C203.523 291.307 202.906 290.325 202.289 289.342C199.137 284.325 195.986 279.308 192.082 275.5C187.107 270.647 180.882 267.65 171.884 267.65C155.955 267.65 142.6 279.823 142.6 295.367V309.589L136.952 305.824C136.952 305.824 136.951 305.823 136.951 305.823C136.709 305.661 136.51 305.442 136.372 305.185C136.234 304.927 136.162 304.64 136.163 304.348V304.347V242.775C136.163 237.375 131.787 233 126.388 233H120.613C115.213 233 110.838 237.375 110.838 242.775V304.347C110.838 304.94 110.543 305.493 110.049 305.823C110.048 305.824 110.048 305.824 110.047 305.824L104.4 309.589V295.367C104.4 279.823 91.0454 267.65 75.1163 267.65C66.1181 267.65 59.8934 270.647 54.918 275.5C51.0143 279.308 47.8626 284.325 44.7108 289.342C44.0938 290.325 43.4767 291.307 42.854 292.28L42.8536 292.281C26.0427 318.563 13.4689 347.04 5.5397 376.787C4.51454 380.622 4 384.561 4 388.514C4 413.578 29.3783 431.027 54.2393 424.364L54.2395 424.364L75.7147 418.607C92.5383 414.1 104.4 399.571 104.4 382.757V351.179V343.705L98.1811 347.851L68.1248 367.89L66.1557 364.938L123.5 326.711L180.844 364.938L178.875 367.889L148.819 347.851L142.6 343.705V351.179V382.757C142.6 399.571 154.462 414.097 171.284 418.607L171.285 418.607L192.761 424.364L192.761 424.364C217.622 431.027 243 413.578 243 388.514C243 384.562 242.486 380.624 241.461 376.79C233.532 347.042 220.958 318.564 204.146 292.281ZM65.2304 365.555C65.2291 365.556 65.2278 365.556 65.2265 365.557L65.2292 365.556L65.2304 365.555ZM181.771 365.556C181.77 365.555 181.77 365.555 181.77 365.555L181.771 365.556Z" fill="#272343" stroke="#F5F5F5" stroke-width="8"/>
</svg>
